<svg width="512" height="512" viewBox="0 0 512 512" xmlns="http://www.w3.org/2000/svg">
  <!-- Background circle -->
  <circle cx="256" cy="256" r="240" fill="#3B82F6" stroke="#2563EB" stroke-width="4"/>

  <!-- Inner circle with subtle gradient -->
  <defs>
    <radialGradient id="backgroundGradient" cx="50%" cy="30%" r="70%">
      <stop offset="0%" style="stop-color:#60A5FA;stop-opacity:1" />
      <stop offset="100%" style="stop-color:#3B82F6;stop-opacity:1" />
    </radialGradient>
    <linearGradient id="chartGradient" x1="0%" y1="0%" x2="100%" y2="100%">
      <stop offset="0%" style="stop-color:#FFFFFF;stop-opacity:0.9" />
      <stop offset="100%" style="stop-color:#E5E7EB;stop-opacity:0.8" />
    </linearGradient>
  </defs>

  <circle cx="256" cy="256" r="240" fill="url(#backgroundGradient)"/>

  <!-- Chart/Graph representation -->
  <g transform="translate(80, 120)">
    <!-- Chart background -->
    <rect x="0" y="0" width="352" height="272" rx="12" fill="url(#chartGradient)" stroke="#FFFFFF" stroke-width="2" opacity="0.95"/>

    <!-- Chart grid lines -->
    <g stroke="#CBD5E1" stroke-width="1" opacity="0.3">
      <!-- Horizontal grid lines -->
      <line x1="20" y1="40" x2="332" y2="40"/>
      <line x1="20" y1="80" x2="332" y2="80"/>
      <line x1="20" y1="120" x2="332" y2="120"/>
      <line x1="20" y1="160" x2="332" y2="160"/>
      <line x1="20" y1="200" x2="332" y2="200"/>
      <line x1="20" y1="240" x2="332" y2="240"/>

      <!-- Vertical grid lines -->
      <line x1="50" y1="20" x2="50" y2="250"/>
      <line x1="110" y1="20" x2="110" y2="250"/>
      <line x1="170" y1="20" x2="170" y2="250"/>
      <line x1="230" y1="20" x2="230" y2="250"/>
      <line x1="290" y1="20" x2="290" y2="250"/>
    </g>

    <!-- Normal data points -->
    <g fill="#10B981" opacity="0.7">
      <circle cx="50" cy="180" r="4"/>
      <circle cx="70" cy="170" r="4"/>
      <circle cx="90" cy="185" r="4"/>
      <circle cx="110" cy="175" r="4"/>
      <circle cx="130" cy="190" r="4"/>
      <circle cx="150" cy="165" r="4"/>
      <circle cx="170" cy="180" r="4"/>
      <circle cx="190" cy="185" r="4"/>
      <circle cx="210" cy="170" r="4"/>
      <circle cx="230" cy="175" r="4"/>
      <circle cx="250" cy="180" r="4"/>
      <circle cx="270" cy="185" r="4"/>
      <circle cx="290" cy="175" r="4"/>
      <circle cx="310" cy="180" r="4"/>
    </g>

    <!-- Anomaly points (larger, red) -->
    <g fill="#EF4444" stroke="#DC2626" stroke-width="2">
      <circle cx="120" cy="100" r="8"/>
      <circle cx="200" cy="220" r="8"/>
      <circle cx="280" cy="80" r="8"/>
    </g>

    <!-- Connecting lines for trend -->
    <path d="M50,180 L70,170 L90,185 L110,175 L130,190 L150,165 L170,180 L190,185 L210,170 L230,175 L250,180 L270,185 L290,175 L310,180"
          stroke="#6B7280" stroke-width="2" fill="none" opacity="0.6"/>

    <!-- Anomaly detection indicators -->
    <g stroke="#EF4444" stroke-width="3" fill="none" opacity="0.8">
      <!-- Alert symbols around anomalies -->
      <circle cx="120" cy="100" r="15" stroke-dasharray="5,5"/>
      <circle cx="200" cy="220" r="15" stroke-dasharray="5,5"/>
      <circle cx="280" cy="80" r="15" stroke-dasharray="5,5"/>
    </g>
  </g>

  <!-- Magnifying glass icon in corner -->
  <g transform="translate(360, 80)">
    <circle cx="25" cy="25" r="20" fill="none" stroke="#FFFFFF" stroke-width="4"/>
    <circle cx="25" cy="25" r="12" fill="none" stroke="#FFFFFF" stroke-width="2"/>
    <line x1="40" y1="40" x2="52" y2="52" stroke="#FFFFFF" stroke-width="4" stroke-linecap="round"/>
  </g>

  <!-- Alert/Warning triangle for anomaly detection -->
  <g transform="translate(70, 60)">
    <path d="M20,5 L35,30 L5,30 Z" fill="#F59E0B" stroke="#D97706" stroke-width="2"/>
    <circle cx="20" cy="22" r="2" fill="#FFFFFF"/>
    <line x1="20" y1="15" x2="20" y2="19" stroke="#FFFFFF" stroke-width="2" stroke-linecap="round"/>
  </g>
</svg>
